<svg width="1622" height="366" viewBox="0 0 1622 366" fill="none" xmlns="http://www.w3.org/2000/svg">
<mask id="mask0_186_3" style="mask-type:alpha" maskUnits="userSpaceOnUse" x="52" y="73" width="1524" height="223">
<path d="M52.6469 291V78H130.947C202.347 78 242.247 116.4 242.247 184.8C242.247 252.9 202.947 291 132.747 291H52.6469ZM130.947 243.9C166.347 243.9 181.947 225.3 181.947 184.5C181.947 143.7 166.347 125.1 130.947 125.1H111.447V243.9H130.947ZM265.928 291V78H423.728V125.1H324.728V160.8H420.128V207.6H324.728V243.9H426.128V291H265.928ZM546.065 295.8C487.265 295.8 453.965 266.4 450.965 219.6L509.465 216.9C512.465 237.9 523.865 249.6 546.665 249.6C564.665 249.6 574.865 243.6 574.865 231C574.865 219.6 568.865 213 536.465 206.4C478.265 194.4 454.865 179.1 454.865 139.8C454.865 100.2 486.665 73.2 540.665 73.2C597.665 73.2 626.465 104.1 630.965 148.2L573.065 150.6C571.565 131.1 559.565 119.4 540.065 119.4C523.265 119.4 513.665 126.9 513.665 138C513.665 151.2 522.665 157.2 550.265 162C613.265 173.1 633.665 195 633.665 228.6C633.665 270.3 601.265 295.8 546.065 295.8ZM660.557 291V78H719.357V291H660.557ZM847.879 295.8C785.479 295.8 747.379 251.4 747.379 184.8C747.379 120.6 786.079 73.2 852.079 73.2C910.279 73.2 939.979 101.7 950.479 150.9L889.579 153.3C885.979 132.3 874.879 120.3 852.679 120.3C823.879 120.3 807.679 146.1 807.679 184.8C807.679 223.2 822.079 248.7 853.879 248.7C875.779 248.7 889.279 237.3 892.279 217.2H852.379V178.2H951.079V291H916.879L915.079 263.7C903.679 283.5 878.479 295.8 847.879 295.8ZM981.651 291V78H1041.05L1112.15 198V78H1170.95V291H1111.55L1040.45 177V291H981.651ZM1202.26 291V78H1360.06V125.1H1261.06V160.8H1356.46V207.6H1261.06V243.9H1362.46V291H1202.26ZM1392.39 291V78H1494.09C1542.09 78 1573.29 102.9 1573.29 141C1573.29 167.7 1559.49 186.6 1534.89 194.4C1557.69 197.1 1568.79 209.7 1570.29 231L1575.09 291H1515.09L1512.09 241.2C1511.19 225.6 1504.89 218.4 1485.69 218.4H1451.19V291H1392.39ZM1483.29 171.3C1502.79 171.3 1513.29 162.6 1513.29 147.9C1513.29 132.6 1502.79 125.1 1483.29 125.1H1451.19V171.3H1483.29Z" fill="#D9D9D9"/>
</mask>
<g mask="url(#mask0_186_3)">
<rect x="-1" y="-20.8152" width="1623" height="369.469" fill="#821BD3"/>
<path d="M167 111.014C35.8 138.768 0.333333 34.6919 -1 -20.8152H1619C1628.33 72.8531 1641.4 260.19 1619 260.19C1591 260.19 1595 128.36 1463 111.014C1331 93.6682 1387 187.336 1195 208.152C1003 228.967 1063 128.36 879 111.014C695 93.6682 731 173.46 499 187.336C267 201.213 331 76.3223 167 111.014Z" fill="#BA20D3" stroke="url(#paint0_linear_186_3)" stroke-width="8" stroke-linecap="round"/>
</g>
<defs>
<linearGradient id="paint0_linear_186_3" x1="-1" y1="119.687" x2="1631.37" y2="119.687" gradientUnits="userSpaceOnUse">
<stop stop-color="#BA20D3"/>
<stop offset="1" stop-color="#821BD3"/>
</linearGradient>
</defs>
</svg>
