<svg width="30" height="30" viewBox="0 0 30 30" fill="none" xmlns="http://www.w3.org/2000/svg">
<g clip-path="url(#clip0_30_287)">
<path fill-rule="evenodd" clip-rule="evenodd" d="M1.875 22.5C1.875 22.6903 1.91156 22.8703 1.96406 23.0419L10.3125 14.0625L1.875 7.5L1.875 22.5ZM26.6662 24.3244L18.2063 15.3094L15 17.7328L11.9325 15.2944L3.33375 24.3244C3.46781 24.3553 26.5322 24.3553 26.6662 24.3244ZM28.125 22.5L28.125 7.5L19.6875 14.0625L28.0359 23.0419C28.0884 22.8703 28.125 22.6903 28.125 22.5ZM2.8125 5.625L15 15L27.1875 5.625L2.8125 5.625ZM3.75 3.75L26.25 3.75C28.3209 3.75 30 5.42906 30 7.5L30 22.5C30 24.5709 28.3209 26.25 26.25 26.25L3.75 26.25C1.67906 26.25 -1.82022e-06 24.5709 -1.63918e-06 22.5L-3.27835e-07 7.5C-1.46788e-07 5.42906 1.67906 3.75 3.75 3.75Z" fill="#D1D1D1"/>
</g>
<defs>
<clipPath id="clip0_30_287">
<rect width="30" height="30" fill="white" transform="matrix(-1 -8.74228e-08 -8.74228e-08 1 30 0)"/>
</clipPath>
</defs>
</svg>
