<svg width="1622" height="4204" viewBox="0 0 1622 4204" fill="none" xmlns="http://www.w3.org/2000/svg">
<path d="M266 1574C266 1579.52 270.477 1584 276 1584C281.523 1584 286 1579.52 286 1574L266 1574ZM266 280L266 1574L286 1574L286 280L266 280Z" fill="url(#paint0_linear_183_5)"/>
<path d="M281 1574L1353 1576.01" stroke="url(#paint1_linear_183_5)" stroke-width="20" stroke-linecap="round"/>
<path d="M1353 2031L832 2030.99" stroke="url(#paint2_linear_183_5)" stroke-width="20" stroke-linecap="round"/>
<path d="M1353 2029L1353 1576" stroke="url(#paint3_linear_183_5)" stroke-width="20" stroke-linecap="round"/>
<path d="M285 3362L831 3365.96" stroke="url(#paint4_linear_183_5)" stroke-width="20" stroke-linecap="round" stroke-dasharray="40 40"/>
<path d="M832 2509.33C861.455 2509.33 885.333 2485.46 885.333 2456C885.333 2426.54 861.455 2402.67 832 2402.67C802.545 2402.67 778.667 2426.54 778.667 2456C778.667 2485.46 802.545 2509.33 832 2509.33ZM842 2035C842 2029.48 837.523 2025 832 2025C826.477 2025 822 2029.48 822 2035L842 2035ZM842 2456L842 2035L822 2035L822 2456L842 2456Z" fill="url(#paint5_linear_183_5)"/>
<path d="M285 3364V3777" stroke="url(#paint6_linear_183_5)" stroke-width="20" stroke-linecap="round" stroke-dasharray="40 40"/>
<path d="M1202 3781L285 3777.01" stroke="url(#paint7_linear_183_5)" stroke-width="20" stroke-linecap="round" stroke-dasharray="40 40"/>
<path d="M1212 3780.95C1211.97 3775.43 1207.48 3770.97 1201.95 3771C1196.43 3771.03 1191.97 3775.52 1192 3781.05L1212 3780.95ZM1196.86 4201.1C1200.79 4204.99 1207.12 4204.96 1211.01 4201.04L1274.35 4137.11C1278.24 4133.18 1278.21 4126.85 1274.29 4122.97C1270.36 4119.08 1264.03 4119.11 1260.14 4123.03L1203.84 4179.86L1147.01 4123.55C1143.09 4119.66 1136.75 4119.69 1132.87 4123.62C1128.98 4127.54 1129.01 4133.87 1132.93 4137.76L1196.86 4201.1ZM1192 3781.05L1193.9 4194.05L1213.9 4193.95L1212 3780.95L1192 3781.05Z" fill="url(#paint8_linear_183_5)"/>
<path d="M831 2482L832.002 3364" stroke="url(#paint9_linear_183_5)" stroke-width="20" stroke-linecap="round" stroke-dasharray="40 40"/>
<mask id="mask0_183_5" style="mask-type:alpha" maskUnits="userSpaceOnUse" x="52" y="73" width="1524" height="223">
<path d="M52.6469 291V78H130.947C202.347 78 242.247 116.4 242.247 184.8C242.247 252.9 202.947 291 132.747 291H52.6469ZM130.947 243.9C166.347 243.9 181.947 225.3 181.947 184.5C181.947 143.7 166.347 125.1 130.947 125.1H111.447V243.9H130.947ZM265.928 291V78H423.728V125.1H324.728V160.8H420.128V207.6H324.728V243.9H426.128V291H265.928ZM546.065 295.8C487.265 295.8 453.965 266.4 450.965 219.6L509.465 216.9C512.465 237.9 523.865 249.6 546.665 249.6C564.665 249.6 574.865 243.6 574.865 231C574.865 219.6 568.865 213 536.465 206.4C478.265 194.4 454.865 179.1 454.865 139.8C454.865 100.2 486.665 73.2 540.665 73.2C597.665 73.2 626.465 104.1 630.965 148.2L573.065 150.6C571.565 131.1 559.565 119.4 540.065 119.4C523.265 119.4 513.665 126.9 513.665 138C513.665 151.2 522.665 157.2 550.265 162C613.265 173.1 633.665 195 633.665 228.6C633.665 270.3 601.265 295.8 546.065 295.8ZM660.557 291V78H719.357V291H660.557ZM847.879 295.8C785.479 295.8 747.379 251.4 747.379 184.8C747.379 120.6 786.079 73.2 852.079 73.2C910.279 73.2 939.979 101.7 950.479 150.9L889.579 153.3C885.979 132.3 874.879 120.3 852.679 120.3C823.879 120.3 807.679 146.1 807.679 184.8C807.679 223.2 822.079 248.7 853.879 248.7C875.779 248.7 889.279 237.3 892.279 217.2H852.379V178.2H951.079V291H916.879L915.079 263.7C903.679 283.5 878.479 295.8 847.879 295.8ZM981.651 291V78H1041.05L1112.15 198V78H1170.95V291H1111.55L1040.45 177V291H981.651ZM1202.26 291V78H1360.06V125.1H1261.06V160.8H1356.46V207.6H1261.06V243.9H1362.46V291H1202.26ZM1392.39 291V78H1494.09C1542.09 78 1573.29 102.9 1573.29 141C1573.29 167.7 1559.49 186.6 1534.89 194.4C1557.69 197.1 1568.79 209.7 1570.29 231L1575.09 291H1515.09L1512.09 241.2C1511.19 225.6 1504.89 218.4 1485.69 218.4H1451.19V291H1392.39ZM1483.29 171.3C1502.79 171.3 1513.29 162.6 1513.29 147.9C1513.29 132.6 1502.79 125.1 1483.29 125.1H1451.19V171.3H1483.29Z" fill="#D9D9D9"/>
</mask>
<g mask="url(#mask0_183_5)">
<rect x="-1" y="-24" width="1623" height="426" fill="#821BD3"/>
<path d="M167 128C35.8 160 0.333333 40 -1 -24H1619C1628.33 84 1641.4 300 1619 300C1591 300 1595 148 1463 128C1331 108 1387 216 1195 240C1003 264 1063 148 879 128C695 108 731 200 499 216C267 232 331 88 167 128Z" fill="#BA20D3" stroke="url(#paint10_linear_183_5)" stroke-width="8" stroke-linecap="round"/>
</g>
<defs>
<linearGradient id="paint0_linear_183_5" x1="275.5" y1="280" x2="275.5" y2="1574" gradientUnits="userSpaceOnUse">
<stop stop-color="#821BD3"/>
<stop offset="1" stop-color="#D100FF"/>
</linearGradient>
<linearGradient id="paint1_linear_183_5" x1="281.067" y1="1824.5" x2="1353.07" y2="1826.51" gradientUnits="userSpaceOnUse">
<stop stop-color="#D100FF"/>
<stop offset="1" stop-color="#821BD3"/>
</linearGradient>
<linearGradient id="paint2_linear_183_5" x1="1352.74" y1="1780.5" x2="831.744" y2="1780.49" gradientUnits="userSpaceOnUse">
<stop stop-color="#D100FF"/>
<stop offset="1" stop-color="#821BD3"/>
</linearGradient>
<linearGradient id="paint3_linear_183_5" x1="1363.5" y1="2029" x2="1363.5" y2="1576" gradientUnits="userSpaceOnUse">
<stop stop-color="#D100FF"/>
<stop offset="1" stop-color="#821BD3"/>
</linearGradient>
<linearGradient id="paint4_linear_183_5" x1="283.458" y1="3612.49" x2="829.458" y2="3616.45" gradientUnits="userSpaceOnUse">
<stop stop-color="#D100FF"/>
<stop offset="1" stop-color="#821BD3"/>
</linearGradient>
<linearGradient id="paint5_linear_183_5" x1="842.5" y1="2456" x2="842.5" y2="2035" gradientUnits="userSpaceOnUse">
<stop stop-color="#D100FF"/>
<stop offset="1" stop-color="#821BD3"/>
</linearGradient>
<linearGradient id="paint6_linear_183_5" x1="274.5" y1="3364" x2="274.5" y2="3777" gradientUnits="userSpaceOnUse">
<stop stop-color="#D100FF"/>
<stop offset="1" stop-color="#821BD3"/>
</linearGradient>
<linearGradient id="paint7_linear_183_5" x1="1202.05" y1="3770.5" x2="285.046" y2="3766.51" gradientUnits="userSpaceOnUse">
<stop stop-color="#D100FF"/>
<stop offset="1" stop-color="#821BD3"/>
</linearGradient>
<linearGradient id="paint8_linear_183_5" x1="1191.5" y1="3781.05" x2="1193.4" y2="4194.05" gradientUnits="userSpaceOnUse">
<stop stop-color="#D100FF"/>
<stop offset="1" stop-color="#821BD3"/>
</linearGradient>
<linearGradient id="paint9_linear_183_5" x1="820.5" y1="2482.01" x2="821.502" y2="3364.01" gradientUnits="userSpaceOnUse">
<stop stop-color="#D100FF"/>
<stop offset="1" stop-color="#821BD3"/>
</linearGradient>
<linearGradient id="paint10_linear_183_5" x1="-1" y1="138" x2="1631.37" y2="138" gradientUnits="userSpaceOnUse">
<stop stop-color="#BA20D3"/>
<stop offset="1" stop-color="#821BD3"/>
</linearGradient>
</defs>
</svg>
