<?xml version="1.0" encoding="UTF-8"?>
<svg id="Calque_2" data-name="Calque 2" xmlns="http://www.w3.org/2000/svg" viewBox="0 0 50.89 25.57">
  <defs>
    <style>
      .cls-1 {
        fill: #D1D1D1;
        stroke-width: 0px;
      }
    </style>
  </defs>
  <g id="OBJECTS">
    <g>
      <path class="cls-1" d="M50.07,10.79L40.09.82c-.98-.97-2.58-1.12-3.61-.2-1.09.98-1.13,2.67-.1,3.7l4.52,4.52c.51.51.15,1.38-.57,1.38h-16.31c-1.38,0-2.62,1.03-2.69,2.41-.08,1.47,1.09,2.68,2.54,2.68h16.45c.72,0,1.08.87.57,1.38l-4.42,4.42c-.98.97-1.12,2.58-.2,3.6.98,1.09,2.67,1.13,3.7.1l10.08-10.08c1.09-1.09,1.09-2.86,0-3.95Z"/>
      <path class="cls-1" d="M14.44,10.22h-2.94c-1.41,0-2.55,1.14-2.55,2.55s1.14,2.55,2.55,2.55h2.94c1.41,0,2.55-1.14,2.55-2.55s-1.14-2.55-2.55-2.55Z"/>
      <path class="cls-1" d="M2.82,10.22h-.27c-1.41,0-2.55,1.14-2.55,2.55s1.14,2.55,2.55,2.55h.27c1.41,0,2.55-1.14,2.55-2.55s-1.14-2.55-2.55-2.55Z"/>
    </g>
  </g>
</svg>