<svg width="30" height="30" viewBox="0 0 30 30" fill="none" xmlns="http://www.w3.org/2000/svg">
<path d="M24.8344 28.125H5.15626C4.72199 28.1394 4.28947 28.0635 3.88605 27.9021C3.48262 27.7407 3.11707 27.4974 2.81251 27.1875C2.50497 26.8851 2.26301 26.5226 2.10172 26.1226C1.94043 25.7226 1.86325 25.2937 1.87501 24.8625V5.15626C1.86065 4.72199 1.93655 4.28947 2.09792 3.88605C2.25929 3.48262 2.50261 3.11707 2.81251 2.81251C3.11707 2.50261 3.48262 2.25929 3.88605 2.09792C4.28947 1.93655 4.72199 1.86065 5.15626 1.87501H24.8438C25.278 1.86065 25.7105 1.93655 26.114 2.09792C26.5174 2.25929 26.8829 2.50261 27.1875 2.81251C27.4974 3.11707 27.7407 3.48262 27.9021 3.88605C28.0635 4.28947 28.1394 4.72199 28.125 5.15626V24.8438C28.1201 25.7141 27.7715 26.5472 27.1552 27.1618C26.5389 27.7764 25.7047 28.1225 24.8344 28.125ZM8.54063 10.6781C8.81413 10.6906 9.08741 10.649 9.34481 10.5557C9.6022 10.4624 9.83866 10.3192 10.0406 10.1344C10.2207 9.97093 10.364 9.77105 10.461 9.548C10.558 9.32495 10.6064 9.08383 10.6031 8.84063C10.587 8.3342 10.3753 7.85371 10.0125 7.50001C9.62554 7.15075 9.11782 6.96582 8.59688 6.98438C8.04953 6.95943 7.51321 7.14379 7.09688 7.50001C6.91777 7.67274 6.77748 7.88163 6.68534 8.11278C6.59321 8.34393 6.55133 8.59205 6.56251 8.84063C6.5585 9.08134 6.60385 9.32032 6.69575 9.54283C6.78766 9.76534 6.92417 9.96666 7.09688 10.1344C7.28853 10.3176 7.51519 10.4601 7.76328 10.5536C8.01137 10.647 8.27577 10.6894 8.54063 10.6781ZM10.3125 12.1875H6.74063V23.0063H10.3125V12.1875ZM23.2969 16.8188C23.4201 15.4643 23.0021 14.1161 22.1344 13.0688C21.7515 12.6766 21.2913 12.3682 20.7829 12.1632C20.2745 11.9583 19.7291 11.8612 19.1813 11.8781C18.3991 11.8105 17.6191 12.0305 16.9875 12.4969C16.5802 12.8536 16.2266 13.2672 15.9375 13.725V12.1875H12.3656V23.0063H15.9375V16.4906C15.9318 16.3503 15.9642 16.211 16.0313 16.0875C16.1764 15.7295 16.4008 15.409 16.6875 15.15C17.0191 14.8625 17.4492 14.7146 17.8875 14.7375C18.1626 14.7138 18.4389 14.767 18.6856 14.8912C18.9322 15.0153 19.1395 15.2056 19.2844 15.4406C19.5796 15.9865 19.7221 16.6018 19.6969 17.2219V22.9875H23.3063L23.2969 16.8188ZM15.9375 13.7813C15.9357 13.7735 15.9359 13.7654 15.9381 13.7578C15.9403 13.7501 15.9444 13.7432 15.95 13.7375C15.9557 13.7319 15.9626 13.7278 15.9703 13.7256C15.9779 13.7234 15.986 13.7232 15.9938 13.725V13.7813H15.9375Z" fill="#D1D1D1"/>
</svg>
