<?xml version="1.0" encoding="UTF-8"?>
<svg id="Calque_1" data-name="Calque 1" xmlns="http://www.w3.org/2000/svg" viewBox="0 0 434.4 345.09">
  <defs>
    <style>
      .cls-1 {
        fill: #D1D1D1;
        stroke-width: 0px;
      }
    </style>
  </defs>
  <path class="cls-1" d="M41.02,230.91c.58,5.59,1.81,11.38,3.83,17.36,10.77,31.82,39.36,54.65,72.89,56.69,43.18,2.63,65.69-30.38,65.69-30.38l35.61,21.68c-91.35,96-171.35,22.19-180.65,14.45-7.92-6.6-61.65-65.77-26.7-139.07,13.77-28.87,37.73-51.85,67.53-63.45,71.2-27.72,127.42,24.46,127.42,24.46l-28.39,29.94s-13.68-12.39-35.42-18.26c-54.62-14.75-107.71,30.32-101.83,86.59Z"/>
  <polygon class="cls-1" points="122.53 240.52 122.53 200.26 221.11 200.26 185.49 240.52 122.53 240.52"/>
  <polygon class="cls-1" points="244.33 240.52 405.37 240.52 405.37 200.26 281.49 200.26 244.33 240.52"/>
  <polygon class="cls-1" points="244.33 184.26 284.08 146.06 284.08 0 241.24 0 244.33 184.26"/>
  <circle class="cls-1" cx="405.37" cy="308.65" r="29.03"/>
</svg>