<svg width="100" height="35" viewBox="0 0 100 35" fill="none" xmlns="http://www.w3.org/2000/svg">
<g clip-path="url(#clip0_33_315)">
<path d="M0 0H7.7229C9.77792 0 11.6672 0.263174 13.3576 0.822418C15.0481 1.38166 16.4733 2.20408 17.6666 3.35547C18.8598 4.50685 19.7879 5.95431 20.4508 7.69784C21.1137 9.47426 21.4451 11.5468 21.4451 13.9811C21.4451 16.4155 21.1137 18.5209 20.4508 20.2973C19.7879 22.0737 18.8929 23.5541 17.6997 24.7383C16.5065 25.9226 15.1144 26.7779 13.4902 27.3701C11.8661 27.9622 10.0431 28.2254 8.0875 28.2254H0V0ZM7.3583 23.0606C8.4521 23.0606 9.47962 22.8961 10.3745 22.6001C11.3026 22.2711 12.065 21.7776 12.7279 21.0539C13.3908 20.3631 13.888 19.4091 14.2526 18.2577C14.6172 17.1063 14.7829 15.6588 14.7829 13.9811C14.7829 12.3034 14.6172 10.8888 14.2526 9.77033C13.888 8.61894 13.3908 7.73073 12.7279 7.0399C12.065 6.34907 11.3026 5.88852 10.3745 5.59244C9.44647 5.29637 8.4521 5.16479 7.3583 5.16479H6.43023V23.0935H7.3583V23.0606Z" fill="white"/>
<path d="M23.5002 0H30.0298L30.9579 15.0338C30.9911 16.251 31.0242 17.4353 31.0574 18.6196C31.0905 19.8038 31.1236 20.9881 31.1568 22.2053H31.2894C31.5214 20.9881 31.7866 19.8038 32.0517 18.6196C32.3169 17.4353 32.5821 16.251 32.8141 15.0338L34.7697 7.20438H38.6477L40.537 15.0338C40.769 16.1852 41.001 17.3695 41.2662 18.5867C41.5313 19.8038 41.7634 21.021 41.9954 22.2382H42.1611C42.2274 21.021 42.2605 19.8367 42.2605 18.6196C42.2605 17.4353 42.3268 16.2181 42.36 15.0338L43.2218 0H49.3205L45.774 28.2254H39.0454L37.2556 19.3433C37.0898 18.4551 36.9241 17.534 36.7915 16.58C36.6589 15.6588 36.5595 14.7706 36.4932 13.9153H36.3606C36.2612 14.7377 36.1618 15.6259 36.0292 16.58C35.8966 17.534 35.7309 18.4222 35.5651 19.3433L33.8747 28.2254H27.3119L23.5002 0Z" fill="white"/>
<path d="M59.3636 5.36217H50.8452V0H74.3122V5.36217H65.7938V28.2254H59.3305V5.36217H59.3636Z" fill="white"/>
<path d="M100 28.2253H80.6099V34.5744H100V28.2253Z" fill="#FCDC02"/>
</g>
<defs>
<clipPath id="clip0_33_315">
<rect width="100" height="34.5745" fill="white"/>
</clipPath>
</defs>
</svg>
